<svg width="100%" height="100%" viewBox="0 0 900 600" xmlns="http://www.w3.org/2000/svg">
  <defs>
    <linearGradient id="bg" x1="0" y1="0" x2="1" y2="1">
      <stop offset="0%" stop-color="#071b26"/>
      <stop offset="100%" stop-color="#123348"/>
    </linearGradient>
    <linearGradient id="accent" x1="0" y1="0" x2="1" y2="1">
      <stop offset="0%" stop-color="#00f5d4"/>
      <stop offset="100%" stop-color="#f15bb5"/>
    </linearGradient>
  </defs>
  <rect width="900" height="600" rx="40" fill="url(#bg)"/>
  <rect x="60" y="80" width="780" height="420" rx="30" fill="rgba(255,255,255,0.05)" stroke="rgba(255,255,255,0.14)" stroke-width="2"/>
  <rect x="95" y="130" width="250" height="220" rx="20" fill="rgba(0,245,212,0.12)"/>
  <rect x="390" y="130" width="370" height="220" rx="20" fill="rgba(241,91,181,0.12)"/>
  <rect x="95" y="380" width="665" height="80" rx="20" fill="rgba(255,255,255,0.08)"/>
  <text x="220" y="180" fill="#fff" font-size="24" font-weight="700">Market Display</text>
  <text x="220" y="220" fill="#fff" font-size="18" opacity="0.8">Live price board screen</text>
  <rect x="105" y="240" width="230" height="100" rx="16" fill="rgba(0,0,0,0.1)"/>
  <text x="190" y="285" fill="#00f5d4" font-size="18" font-weight="700">Rice - 45</text>
  <text x="190" y="320" fill="#fff" font-size="16">Wheat - 32</text>
  <text x="190" y="350" fill="#fff" font-size="16">Oil - 180</text>
  <text x="570" y="180" fill="#fff" font-size="24" font-weight="700">Admin Panel</text>
  <text x="570" y="220" fill="#fff" font-size="18" opacity="0.8">Price update interface</text>
  <rect x="400" y="250" width="330" height="34" rx="16" fill="rgba(255,255,255,0.1)"/>
  <rect x="400" y="300" width="330" height="34" rx="16" fill="rgba(255,255,255,0.1)"/>
  <rect x="400" y="350" width="210" height="34" rx="16" fill="rgba(0,245,212,0.2)"/>
  <text x="425" y="276" fill="#fff" font-size="16">Enter commodity</text>
  <text x="425" y="326" fill="#fff" font-size="16">Enter new price</text>
  <text x="425" y="356" fill="#00f5d4" font-size="16" font-weight="700">Update price</text>
  <line x1="325" y1="320" x2="380" y2="320" stroke="url(#accent)" stroke-width="8" stroke-linecap="round"/>
  <circle cx="415" cy="320" r="10" fill="#00f5d4"/>
  <text x="125" y="430" fill="#fff" font-size="18">Live project prototype snapshot</text>
</svg>
